<svg width="64" height="64" viewBox="0 0 64 64" fill="none"
    xmlns="http://www.w3.org/2000/svg">
    <defs>
        <!-- Fresh blue/green gradient -->
        <linearGradient id="coolGradient" x1="0%" y1="0%" x2="100%" y2="100%">
            <stop offset="0%" style="stop-color:#2563EB;" />
            <stop offset="100%" style="stop-color:#10B981;" />
        </linearGradient>

        <!-- Shadow for depth -->
        <filter id="shadow">
            <feDropShadow dx="0" dy="1" stdDeviation="3" flood-color="#000000" flood-opacity="0.1"/>
        </filter>
    </defs>

    <!-- White background with a subtle shadow -->
    <circle cx="32" cy="32" r="28" fill="white" filter="url(#shadow)"/>

    <!-- Subtle gear in the background -->
    <path d="M32 17.1c-0.6 0-1.2 0.2-1.7 0.5l-6.8 4c-0.5 0.3-0.9 0.8-1.2 1.4l-2.3 6c-0.2 0.6-0.2 1.2 0 1.8l2.3 6 c0.3 0.6 0.7 1.1 1.2 1.4l6.8 4c0.5 0.3 1.1 0.5 1.7 0.5s1.2-0.2 1.7-0.5l6.8-4c0.5-0.3 0.9-0.8 1.2-1.4l2.3-6 c0.2-0.6 0.2-1.2 0-1.8l-2.3-6c-0.3-0.6-0.7-1.1-1.2-1.4l-6.8-4C33.2 17.3 32.6 17.1 32 17.1z M32 20.9c0.2 0 0.4 0.1 0.6 0.2 l6.8 4c0.2 0.1 0.3 0.3 0.4 0.5l2.3 6c0.1 0.2 0.1 0.4 0 0.6l-2.3 6c-0.1 0.2-0.2 0.4-0.4 0.5l-6.8 4 c-0.2 0.1-0.4 0.2-0.6 0.2s-0.4-0.1-0.6-0.2l-6.8-4c-0.2-0.1-0.3-0.3-0.4-0.5l-2.3-6c-0.1-0.2-0.1-0.4 0-0.6l2.3-6 c0.1-0.2 0.2-0.4 0.4-0.5l6.8-4C31.6 21 31.8 20.9 32 20.9z" fill="#D1D5DB" opacity="0.4" />
    <circle cx="32" cy="32" r="6" fill="#D1D5DB" opacity="0.4" />

    <!-- M Letter with gradient fill -->
    <g fill="url(#coolGradient)">
        <path fill-rule="evenodd" clip-rule="evenodd" d="M18 44 V 20 L 32 34 L 46 20 V 44 H 42 V 28 L 32 38 L 22 28 V 44 H 18 Z" />
    </g>

    <!-- Subtle accent lines, suggesting speed or data flow -->
    <g stroke="white" stroke-width="1.5" fill="none" opacity="0.4" stroke-linecap="round">
        <path d="M12 24 C 16 28, 20 28, 20 28" />
        <path d="M52 40 C 48 36, 44 36, 44 36" />
    </g>
</svg> 